<svg xmlns="http://www.w3.org/2000/svg" xmlns:xlink="http://www.w3.org/1999/xlink" width="40" zoomAndPan="magnify" viewBox="0 0 30 30.000001" height="40" preserveAspectRatio="xMidYMid meet" version="1.0"><defs><clipPath id="64d8bb6aea"><path d="M 1.027344 1.089844 L 28.972656 1.089844 L 28.972656 29.03125 L 1.027344 29.03125 Z M 1.027344 1.089844 " clip-rule="nonzero"/></clipPath></defs><g clip-path="url(#64d8bb6aea)"><path fill="#f64283" d="M 8.6875 15.476562 C 9.816406 15.476562 10.730469 14.5625 10.730469 13.433594 C 10.730469 12.304688 9.8125 11.390625 8.6875 11.390625 C 7.554688 11.390625 6.640625 12.304688 6.640625 13.433594 C 6.640625 14.5625 7.554688 15.476562 8.6875 15.476562 Z M 14.820312 15.476562 C 15.945312 15.476562 16.863281 14.5625 16.863281 13.433594 C 16.863281 12.304688 15.945312 11.390625 14.820312 11.390625 C 13.6875 11.390625 12.777344 12.304688 12.777344 13.433594 C 12.777344 14.5625 13.6875 15.476562 14.820312 15.476562 Z M 20.949219 15.476562 C 22.082031 15.476562 22.996094 14.5625 22.996094 13.433594 C 22.996094 12.304688 22.082031 11.390625 20.949219 11.390625 C 19.820312 11.390625 18.90625 12.304688 18.90625 13.433594 C 18.90625 14.5625 19.820312 15.476562 20.949219 15.476562 Z M 14.820312 1.246094 C 22.636719 1.246094 28.972656 6.703125 28.972656 13.433594 C 28.972656 16.070312 28 18.507812 26.351562 20.5 C 25.886719 21.058594 25.726562 21.210938 25.726562 21.210938 C 25.21875 21.683594 24.890625 22.53125 24.992188 23.101562 C 25.097656 23.667969 25.183594 24.128906 25.183594 24.128906 L 25.945312 28.316406 C 26.070312 29 25.703125 29.238281 25.128906 28.851562 L 21.632812 26.488281 L 20.167969 25.496094 C 19.738281 25.207031 18.96875 25.058594 18.460938 25.171875 C 18.460938 25.171875 16.417969 25.621094 14.820312 25.621094 C 7.003906 25.621094 0.664062 20.164062 0.664062 13.433594 C 0.664062 6.703125 7 1.246094 14.820312 1.246094 " fill-opacity="1" fill-rule="nonzero"/></g></svg>