<svg xmlns="http://www.w3.org/2000/svg" xmlns:xlink="http://www.w3.org/1999/xlink" width="40" zoomAndPan="magnify" viewBox="0 0 30 30.000001" height="40" preserveAspectRatio="xMidYMid meet" version="1.0"><defs><clipPath id="07bf59c2e4"><path d="M 1.246094 0.761719 L 28.828125 0.761719 L 28.828125 28.34375 L 1.246094 28.34375 Z M 1.246094 0.761719 " clip-rule="nonzero"/></clipPath><clipPath id="fe14e8da20"><path d="M 1.246094 1 L 28.828125 1 L 28.828125 28 L 1.246094 28 Z M 1.246094 1 " clip-rule="nonzero"/></clipPath><clipPath id="69ee4d8b6f"><path d="M 1.246094 0.761719 L 28.828125 0.761719 L 28.828125 28.34375 L 1.246094 28.34375 Z M 1.246094 0.761719 " clip-rule="nonzero"/></clipPath></defs><g clip-path="url(#07bf59c2e4)"><path fill="#000" d="M 15.035156 28.34375 C 11.351562 28.34375 7.890625 26.910156 5.285156 24.304688 C 2.679688 21.699219 1.246094 18.234375 1.246094 14.550781 C 1.246094 10.867188 2.679688 7.40625 5.285156 4.800781 C 7.890625 2.195312 11.351562 0.761719 15.035156 0.761719 C 18.71875 0.761719 22.183594 2.195312 24.789062 4.800781 C 27.390625 7.40625 28.828125 10.867188 28.828125 14.550781 C 28.828125 16.605469 28.25 18.507812 28.226562 18.59375 C 27.996094 19.34375 27.699219 20.082031 27.34375 20.78125 L 28.695312 27.617188 C 28.722656 27.75 28.679688 27.890625 28.585938 27.988281 C 28.488281 28.085938 28.351562 28.128906 28.214844 28.105469 L 21.21875 26.878906 C 20.476562 27.253906 19.699219 27.558594 18.90625 27.792969 C 18.828125 27.8125 16.992188 28.34375 15.035156 28.34375 Z M 15.035156 28.34375 " fill-opacity="1" fill-rule="nonzero"/></g><g clip-path="url(#fe14e8da20)"><path fill="#f072dd" d="M 15.035156 1.121094 C 7.617188 1.121094 1.605469 7.132812 1.605469 14.550781 C 1.605469 21.96875 7.617188 27.984375 15.035156 27.984375 C 22.453125 27.984375 28.46875 21.96875 28.46875 14.550781 C 28.46875 7.132812 22.453125 1.121094 15.035156 1.121094 Z M 15.035156 26.371094 C 14.257812 26.371094 13.492188 26.296875 12.730469 26.144531 C 11.96875 25.992188 11.230469 25.769531 10.511719 25.472656 C 9.796875 25.175781 9.113281 24.8125 8.46875 24.378906 C 7.824219 23.949219 7.226562 23.457031 6.675781 22.910156 C 6.128906 22.363281 5.636719 21.765625 5.207031 21.121094 C 4.777344 20.472656 4.410156 19.792969 4.113281 19.074219 C 3.816406 18.359375 3.59375 17.621094 3.441406 16.859375 C 3.289062 16.097656 3.214844 15.328125 3.214844 14.550781 C 3.214844 13.777344 3.289062 13.007812 3.441406 12.246094 C 3.59375 11.484375 3.816406 10.746094 4.113281 10.03125 C 4.410156 9.3125 4.773438 8.632812 5.207031 7.984375 C 5.636719 7.339844 6.128906 6.742188 6.675781 6.195312 C 7.226562 5.644531 7.820312 5.15625 8.46875 4.722656 C 9.113281 4.292969 9.792969 3.929688 10.511719 3.632812 C 11.226562 3.335938 11.964844 3.109375 12.726562 2.960938 C 13.488281 2.808594 14.257812 2.730469 15.035156 2.730469 C 15.808594 2.730469 16.578125 2.808594 17.339844 2.960938 C 18.101562 3.109375 18.839844 3.335938 19.558594 3.632812 C 20.273438 3.929688 20.957031 4.292969 21.601562 4.722656 C 22.246094 5.15625 22.84375 5.644531 23.390625 6.195312 C 23.941406 6.742188 24.429688 7.339844 24.863281 7.984375 C 25.292969 8.628906 25.65625 9.3125 25.953125 10.027344 C 26.25 10.746094 26.476562 11.484375 26.625 12.246094 C 26.777344 13.007812 26.855469 13.777344 26.855469 14.550781 C 26.855469 15.328125 26.777344 16.097656 26.625 16.859375 C 26.476562 17.617188 26.25 18.359375 25.953125 19.074219 C 25.65625 19.792969 25.292969 20.472656 24.863281 21.117188 C 24.429688 21.761719 23.941406 22.359375 23.390625 22.910156 C 22.84375 23.457031 22.246094 23.949219 21.601562 24.378906 C 20.957031 24.808594 20.273438 25.175781 19.558594 25.472656 C 18.839844 25.769531 18.101562 25.992188 17.339844 26.144531 C 16.578125 26.296875 15.808594 26.371094 15.035156 26.371094 Z M 15.035156 26.371094 " fill-opacity="1" fill-rule="nonzero"/></g><g clip-path="url(#69ee4d8b6f)"><path fill="#000" d="M 15.035156 28.34375 C 7.433594 28.34375 1.246094 22.15625 1.246094 14.550781 C 1.246094 6.949219 7.433594 0.761719 15.035156 0.761719 C 22.640625 0.761719 28.824219 6.949219 28.824219 14.550781 C 28.824219 22.15625 22.640625 28.34375 15.035156 28.34375 Z M 15.035156 1.46875 C 7.820312 1.46875 1.953125 7.335938 1.953125 14.550781 C 1.953125 21.765625 7.820312 27.636719 15.035156 27.636719 C 22.25 27.636719 28.121094 21.765625 28.121094 14.550781 C 28.121094 7.335938 22.25 1.46875 15.035156 1.46875 Z M 15.035156 1.46875 " fill-opacity="1" fill-rule="nonzero"/></g><path fill="#000" d="M 15.035156 26.722656 C 8.324219 26.722656 2.863281 21.265625 2.863281 14.550781 C 2.863281 7.839844 8.324219 2.378906 15.035156 2.378906 C 21.746094 2.378906 27.207031 7.839844 27.207031 14.550781 C 27.207031 21.261719 21.75 26.722656 15.035156 26.722656 Z M 15.035156 3.085938 C 8.714844 3.085938 3.570312 8.230469 3.570312 14.550781 C 3.570312 20.875 8.714844 26.019531 15.035156 26.019531 C 21.359375 26.019531 26.5 20.875 26.5 14.550781 C 26.5 8.230469 21.359375 3.085938 15.035156 3.085938 Z M 15.035156 3.085938 " fill-opacity="1" fill-rule="nonzero"/></svg>